<svg xmlns="http://www.w3.org/2000/svg" xmlns:xlink="http://www.w3.org/1999/xlink" width="1800" zoomAndPan="magnify" viewBox="0 0 1350 449.999984" height="600" preserveAspectRatio="xMidYMid meet" version="1.0"><defs><g/><clipPath id="c5fd68f372"><path d="M 45 76.222656 L 342.75 76.222656 L 342.75 373.972656 L 45 373.972656 Z M 45 76.222656 " clip-rule="nonzero"/></clipPath></defs><g fill="#000000" fill-opacity="1"><g transform="translate(363.432382, 295.721847)"><g><path d="M 121.078125 -15.15625 L 121.078125 0 L 21.65625 0 L 21.65625 -149.453125 L 40.296875 -149.453125 L 40.296875 -15.15625 Z M 121.078125 -15.15625 "/></g></g></g><g fill="#000000" fill-opacity="1"><g transform="translate(477.14442, 295.721847)"><g><path d="M 110.25 -60.65625 C 110.25 -59.78125 110.25 -58.582031 110.25 -57.0625 C 110.25 -55.550781 110.109375 -53.785156 109.828125 -51.765625 L 26.640625 -51.765625 C 27.222656 -41.660156 29.066406 -33.644531 32.171875 -27.71875 C 35.273438 -21.800781 39.207031 -17.578125 43.96875 -15.046875 C 48.738281 -12.523438 53.9375 -11.265625 59.5625 -11.265625 C 67.070312 -11.265625 73.570312 -13.5 79.0625 -17.96875 C 84.550781 -22.445312 87.945312 -28.804688 89.25 -37.046875 L 108.734375 -37.046875 C 107.296875 -27.796875 104.082031 -20.210938 99.09375 -14.296875 C 94.113281 -8.378906 88.117188 -4.007812 81.109375 -1.1875 C 74.109375 1.625 66.640625 3.03125 58.703125 3.03125 C 48.734375 3.03125 39.8125 0.828125 31.9375 -3.578125 C 24.070312 -7.984375 17.863281 -14.625 13.3125 -23.5 C 8.769531 -32.382812 6.5 -43.539062 6.5 -56.96875 C 6.5 -69.382812 8.878906 -80.140625 13.640625 -89.234375 C 18.410156 -98.335938 24.910156 -105.378906 33.140625 -110.359375 C 41.367188 -115.335938 50.679688 -117.828125 61.078125 -117.828125 C 71.617188 -117.828125 80.535156 -115.410156 87.828125 -110.578125 C 95.128906 -105.742188 100.691406 -99.03125 104.515625 -90.4375 C 108.335938 -81.84375 110.25 -71.914062 110.25 -60.65625 Z M 60.65625 -103.546875 C 51.550781 -103.546875 43.929688 -100.367188 37.796875 -94.015625 C 31.660156 -87.660156 28.015625 -78.34375 26.859375 -66.0625 L 91.40625 -66.0625 C 90.539062 -78.050781 87.546875 -87.296875 82.421875 -93.796875 C 77.296875 -100.296875 70.039062 -103.546875 60.65625 -103.546875 Z M 60.65625 -103.546875 "/></g></g></g><g fill="#000000" fill-opacity="1"><g transform="translate(585.224969, 295.721847)"><g><path d="M 116.3125 -114.796875 L 116.3125 -28.15625 C 116.3125 -24.550781 116.3125 -20.722656 116.3125 -16.671875 C 116.3125 -12.628906 116.242188 -9.019531 116.109375 -5.84375 C 115.523438 10.90625 110.429688 23.644531 100.828125 32.375 C 91.222656 41.113281 78.117188 45.484375 61.515625 45.484375 C 45.203125 45.484375 32.851562 42.195312 24.46875 35.625 C 16.09375 29.0625 11.332031 19.710938 10.1875 7.578125 L 9.96875 5.421875 L 28.8125 5.421875 L 29.03125 7.359375 C 29.75 14.441406 32.882812 20.179688 38.4375 24.578125 C 44 28.984375 51.691406 31.1875 61.515625 31.1875 C 72.921875 31.1875 81.65625 28.082031 87.71875 21.875 C 93.789062 15.664062 97.039062 7.070312 97.46875 -3.90625 C 97.613281 -6.644531 97.6875 -8.988281 97.6875 -10.9375 C 97.6875 -12.882812 97.6875 -14.726562 97.6875 -16.46875 L 97.6875 -18.40625 L 89.03125 -6.0625 C 85.851562 -3.320312 81.484375 -1.125 75.921875 0.53125 C 70.359375 2.195312 64.617188 3.03125 58.703125 3.03125 C 47.578125 3.03125 38.113281 0.46875 30.3125 -4.65625 C 22.519531 -9.78125 16.601562 -16.78125 12.5625 -25.65625 C 8.519531 -34.539062 6.5 -44.546875 6.5 -55.671875 C 6.5 -69.816406 9.097656 -81.472656 14.296875 -90.640625 C 19.492188 -99.816406 26.390625 -106.640625 34.984375 -111.109375 C 43.578125 -115.585938 52.78125 -117.828125 62.59375 -117.828125 C 67.363281 -117.828125 72.421875 -117.175781 77.765625 -115.875 C 83.109375 -114.582031 87.222656 -112.707031 90.109375 -110.25 L 97.6875 -98.984375 L 97.6875 -114.796875 Z M 61.515625 -11.265625 C 67.867188 -11.265625 73.789062 -12.742188 79.28125 -15.703125 C 84.769531 -18.660156 89.207031 -23.425781 92.59375 -30 C 95.988281 -36.570312 97.6875 -45.34375 97.6875 -56.3125 L 97.6875 -62.59375 C 97.6875 -72.5625 95.914062 -80.539062 92.375 -86.53125 C 88.84375 -92.53125 84.367188 -96.863281 78.953125 -99.53125 C 73.535156 -102.207031 68.082031 -103.546875 62.59375 -103.546875 C 52.488281 -103.546875 44.003906 -99.679688 37.140625 -91.953125 C 30.285156 -84.222656 26.859375 -72.847656 26.859375 -57.828125 C 26.859375 -49.171875 28.15625 -41.335938 30.75 -34.328125 C 33.351562 -27.328125 37.21875 -21.734375 42.34375 -17.546875 C 47.46875 -13.359375 53.859375 -11.265625 61.515625 -11.265625 Z M 61.515625 -11.265625 "/></g></g></g><g fill="#000000" fill-opacity="1"><g transform="translate(707.600845, 295.721847)"><g><path d="M 81.875 0 L 79.921875 -16.46875 L 73.640625 -4.109375 C 69.742188 -1.367188 65.335938 0.503906 60.421875 1.515625 C 55.515625 2.523438 50.320312 3.03125 44.84375 3.03125 C 37.90625 3.03125 31.65625 1.769531 26.09375 -0.75 C 20.539062 -3.28125 16.101562 -6.960938 12.78125 -11.796875 C 9.457031 -16.640625 7.796875 -22.597656 7.796875 -29.671875 C 7.796875 -42.671875 12.921875 -52.488281 23.171875 -59.125 C 33.429688 -65.769531 49.820312 -69.09375 72.34375 -69.09375 L 79.71875 -69.09375 L 79.71875 -72.125 C 79.71875 -74.582031 79.71875 -76.96875 79.71875 -79.28125 C 79.71875 -81.59375 79.570312 -83.832031 79.28125 -86 C 78.84375 -91.34375 76.925781 -95.601562 73.53125 -98.78125 C 70.144531 -101.957031 64.625 -103.546875 56.96875 -103.546875 C 49.164062 -103.546875 43.28125 -101.484375 39.3125 -97.359375 C 35.34375 -93.242188 33 -87.21875 32.28125 -79.28125 L 12.78125 -79.28125 C 13.644531 -91.550781 18.046875 -101.039062 25.984375 -107.75 C 33.929688 -114.46875 44.257812 -117.828125 56.96875 -117.828125 C 70.6875 -117.828125 80.648438 -115.117188 86.859375 -109.703125 C 93.066406 -104.296875 96.675781 -96.898438 97.6875 -87.515625 C 97.976562 -85.203125 98.160156 -82.707031 98.234375 -80.03125 C 98.304688 -77.363281 98.34375 -74.800781 98.34375 -72.34375 L 98.34375 -29.25 C 98.34375 -24.914062 98.484375 -20.546875 98.765625 -16.140625 C 99.054688 -11.734375 99.632812 -6.351562 100.5 0 Z M 51.125 -11.265625 C 59.78125 -11.265625 66.707031 -14.039062 71.90625 -19.59375 C 77.113281 -25.15625 79.71875 -33.132812 79.71875 -43.53125 L 79.71875 -55.234375 C 63.976562 -56.390625 51.445312 -55.125 42.125 -51.4375 C 32.8125 -47.757812 28.15625 -41.007812 28.15625 -31.1875 C 28.15625 -24.257812 30.210938 -19.207031 34.328125 -16.03125 C 38.441406 -12.851562 44.039062 -11.265625 51.125 -11.265625 Z M 51.125 -11.265625 "/></g></g></g><g fill="#000000" fill-opacity="1"><g transform="translate(811.782653, 295.721847)"><g><path d="M 33.796875 -159.203125 L 33.796875 -32.921875 C 33.796875 -31.191406 33.796875 -29.421875 33.796875 -27.609375 C 33.796875 -25.804688 33.863281 -23.96875 34 -22.09375 C 34.289062 -18.476562 35.445312 -15.984375 37.46875 -14.609375 C 39.488281 -13.242188 43.03125 -12.851562 48.09375 -13.4375 L 48.09375 0 C 46.070312 0.289062 43.90625 0.503906 41.59375 0.640625 C 39.28125 0.785156 37.039062 0.859375 34.875 0.859375 C 29.53125 0.859375 25.015625 -0.328125 21.328125 -2.703125 C 17.648438 -5.085938 15.664062 -9.890625 15.375 -17.109375 C 15.226562 -19.128906 15.15625 -21.367188 15.15625 -23.828125 C 15.15625 -26.285156 15.15625 -29.101562 15.15625 -32.28125 L 15.15625 -159.203125 Z M 33.796875 -159.203125 "/></g></g></g><g fill="#000000" fill-opacity="1"><g transform="translate(854.451201, 295.721847)"><g><path d="M 83.609375 0 L 58.484375 0 L 6.9375 -149.453125 L 27.078125 -149.453125 L 71.484375 -14.078125 L 117.40625 -149.453125 L 137.328125 -149.453125 Z M 83.609375 0 "/></g></g></g><g fill="#000000" fill-opacity="1"><g transform="translate(978.343247, 295.721847)"><g><path d="M 81.875 0 L 79.921875 -16.46875 L 73.640625 -4.109375 C 69.742188 -1.367188 65.335938 0.503906 60.421875 1.515625 C 55.515625 2.523438 50.320312 3.03125 44.84375 3.03125 C 37.90625 3.03125 31.65625 1.769531 26.09375 -0.75 C 20.539062 -3.28125 16.101562 -6.960938 12.78125 -11.796875 C 9.457031 -16.640625 7.796875 -22.597656 7.796875 -29.671875 C 7.796875 -42.671875 12.921875 -52.488281 23.171875 -59.125 C 33.429688 -65.769531 49.820312 -69.09375 72.34375 -69.09375 L 79.71875 -69.09375 L 79.71875 -72.125 C 79.71875 -74.582031 79.71875 -76.96875 79.71875 -79.28125 C 79.71875 -81.59375 79.570312 -83.832031 79.28125 -86 C 78.84375 -91.34375 76.925781 -95.601562 73.53125 -98.78125 C 70.144531 -101.957031 64.625 -103.546875 56.96875 -103.546875 C 49.164062 -103.546875 43.28125 -101.484375 39.3125 -97.359375 C 35.34375 -93.242188 33 -87.21875 32.28125 -79.28125 L 12.78125 -79.28125 C 13.644531 -91.550781 18.046875 -101.039062 25.984375 -107.75 C 33.929688 -114.46875 44.257812 -117.828125 56.96875 -117.828125 C 70.6875 -117.828125 80.648438 -115.117188 86.859375 -109.703125 C 93.066406 -104.296875 96.675781 -96.898438 97.6875 -87.515625 C 97.976562 -85.203125 98.160156 -82.707031 98.234375 -80.03125 C 98.304688 -77.363281 98.34375 -74.800781 98.34375 -72.34375 L 98.34375 -29.25 C 98.34375 -24.914062 98.484375 -20.546875 98.765625 -16.140625 C 99.054688 -11.734375 99.632812 -6.351562 100.5 0 Z M 51.125 -11.265625 C 59.78125 -11.265625 66.707031 -14.039062 71.90625 -19.59375 C 77.113281 -25.15625 79.71875 -33.132812 79.71875 -43.53125 L 79.71875 -55.234375 C 63.976562 -56.390625 51.445312 -55.125 42.125 -51.4375 C 32.8125 -47.757812 28.15625 -41.007812 28.15625 -31.1875 C 28.15625 -24.257812 30.210938 -19.207031 34.328125 -16.03125 C 38.441406 -12.851562 44.039062 -11.265625 51.125 -11.265625 Z M 51.125 -11.265625 "/></g></g></g><g fill="#000000" fill-opacity="1"><g transform="translate(1082.525055, 295.721847)"><g><path d="M 111.34375 -114.796875 L 111.34375 0 L 92.703125 0 L 92.703125 -19.5 L 85.5625 -6.0625 C 80.65625 -2.457031 75.925781 -0.0390625 71.375 1.1875 C 66.820312 2.414062 61.585938 3.03125 55.671875 3.03125 C 43.828125 3.03125 34.472656 0.144531 27.609375 -5.625 C 20.753906 -11.40625 16.675781 -18.265625 15.375 -26.203125 C 14.945312 -29.097656 14.660156 -31.953125 14.515625 -34.765625 C 14.367188 -37.578125 14.296875 -41.296875 14.296875 -45.921875 L 14.296875 -114.796875 L 32.921875 -114.796875 L 32.921875 -49.390625 C 32.921875 -47.515625 32.992188 -45.128906 33.140625 -42.234375 C 33.285156 -39.347656 33.503906 -36.460938 33.796875 -33.578125 C 34.660156 -27.078125 37.363281 -21.804688 41.90625 -17.765625 C 46.457031 -13.722656 52.632812 -11.703125 60.4375 -11.703125 C 66.5 -11.703125 71.945312 -13.359375 76.78125 -16.671875 C 81.625 -19.992188 85.488281 -25.519531 88.375 -33.25 C 91.257812 -40.976562 92.703125 -51.335938 92.703125 -64.328125 L 92.703125 -114.796875 Z M 111.34375 -114.796875 "/></g></g></g><g fill="#000000" fill-opacity="1"><g transform="translate(1199.919246, 295.721847)"><g><path d="M 33.796875 -159.203125 L 33.796875 -32.921875 C 33.796875 -31.191406 33.796875 -29.421875 33.796875 -27.609375 C 33.796875 -25.804688 33.863281 -23.96875 34 -22.09375 C 34.289062 -18.476562 35.445312 -15.984375 37.46875 -14.609375 C 39.488281 -13.242188 43.03125 -12.851562 48.09375 -13.4375 L 48.09375 0 C 46.070312 0.289062 43.90625 0.503906 41.59375 0.640625 C 39.28125 0.785156 37.039062 0.859375 34.875 0.859375 C 29.53125 0.859375 25.015625 -0.328125 21.328125 -2.703125 C 17.648438 -5.085938 15.664062 -9.890625 15.375 -17.109375 C 15.226562 -19.128906 15.15625 -21.367188 15.15625 -23.828125 C 15.15625 -26.285156 15.15625 -29.101562 15.15625 -32.28125 L 15.15625 -159.203125 Z M 33.796875 -159.203125 "/></g></g></g><g fill="#000000" fill-opacity="1"><g transform="translate(1242.587794, 295.721847)"><g><path d="M 38.34375 -99.640625 L 38.34375 -33.578125 C 38.34375 -31.703125 38.34375 -30.148438 38.34375 -28.921875 C 38.34375 -27.691406 38.414062 -26.28125 38.5625 -24.6875 C 38.988281 -19.207031 40.609375 -15.671875 43.421875 -14.078125 C 46.242188 -12.492188 51.265625 -12.132812 58.484375 -13 L 58.484375 0.65625 C 55.742188 1.082031 53.070312 1.367188 50.46875 1.515625 C 47.875 1.660156 45.273438 1.734375 42.671875 1.734375 C 35.597656 1.734375 30.179688 0.144531 26.421875 -3.03125 C 22.671875 -6.207031 20.503906 -11.332031 19.921875 -18.40625 C 19.785156 -20 19.71875 -21.984375 19.71875 -24.359375 C 19.71875 -26.742188 19.71875 -29.523438 19.71875 -32.703125 L 19.71875 -99.640625 L 4.328125 -99.640625 L 4.328125 -113.9375 L 19.71875 -113.9375 L 19.71875 -140.578125 L 38.34375 -140.578125 L 38.34375 -113.9375 L 59.78125 -113.9375 L 59.78125 -99.640625 Z M 38.34375 -99.640625 "/></g></g></g><g clip-path="url(#c5fd68f372)"><path fill="#000000" d="M 193.875 76.222656 C 111.652344 76.222656 45 142.878906 45 225.097656 C 45 307.320312 111.652344 373.972656 193.875 373.972656 C 276.097656 373.972656 342.75 307.320312 342.75 225.097656 C 342.75 142.878906 276.097656 76.222656 193.875 76.222656 Z M 161.746094 321.570312 L 96.808594 321.570312 L 96.808594 192.820312 L 161.746094 257.851562 L 97.285156 257.851562 Z M 96.808594 192.347656 L 96.808594 128.367188 L 161.746094 192.347656 Z M 226.195312 321.570312 L 162.3125 321.570312 L 162.3125 258.023438 L 162.140625 257.851562 L 162.3125 257.851562 L 162.3125 192.820312 L 226.195312 257.851562 L 162.3125 257.851562 L 162.3125 258.023438 Z M 162.3125 192.347656 L 162.3125 128.367188 L 226.195312 192.347656 Z M 290.644531 321.570312 L 226.628906 321.570312 L 226.628906 258.03125 L 226.445312 257.851562 L 226.628906 257.851562 L 226.628906 192.820312 L 290.644531 257.851562 L 226.628906 257.851562 L 226.628906 258.03125 Z M 226.628906 192.347656 L 226.628906 128.367188 L 290.644531 192.347656 Z M 226.628906 192.347656 " fill-opacity="1" fill-rule="nonzero"/></g></svg>